<svg width="200" height="200" viewBox="0 0 200 200" fill="none" xmlns="http://www.w3.org/2000/svg">
<path fill-rule="evenodd" clip-rule="evenodd" d="M137.25 200V122.55H163.25L167.14 92.37H137.24V73.1C137.24 64.36 139.67 58.4 152.21 58.4H168.19V31.4C160.451 30.5764 152.673 30.1758 144.89 30.2C121.85 30.2 106.08 44.27 106.08 70.1V92.37H80V122.55H106.07V200H11.04C4.94 200 0 195.06 0 188.96V11.04C0 4.94 4.94 0 11.04 0H188.96C195.06 0 200 4.94 200 11.04V188.96C200 195.06 195.06 200 188.96 200H137.25V200Z" fill="black"/>
</svg>
