<svg width="209" height="209" viewBox="0 0 209 209" fill="none" xmlns="http://www.w3.org/2000/svg">
<path d="M202.605 4.23224C201.998 2.72234 200.833 1.5043 199.352 0.831516C197.87 0.158733 196.187 0.0830059 194.651 0.62009C193.115 1.15717 191.845 2.26571 191.106 3.7151C190.367 5.16449 190.214 6.84312 190.681 8.40179C200.389 36.3033 181.12 57.1406 166.427 68.3012L160.491 59.7949C158.495 56.942 154.033 54.5699 150.564 54.5281L117.249 54.6744C113.179 54.7973 109.219 56.0177 105.785 58.2065L7.61818 127.041C5.3348 128.647 3.78114 131.094 3.29737 133.843C2.8136 136.593 3.43914 139.423 5.03703 141.712L49.6481 205.541C52.9921 210.296 58.332 209.721 63.0972 206.398L161.265 137.553C164.086 135.557 167.346 131.252 168.496 127.96L178.925 95.095C180.075 91.8137 179.374 86.8081 177.378 83.9553L173.763 78.7721C193.492 63.6509 213.974 36.9303 202.605 4.23224ZM156.928 102.023C155.119 103.289 153.079 104.186 150.924 104.664C148.768 105.141 146.54 105.189 144.366 104.804C142.193 104.42 140.116 103.611 138.255 102.424C136.394 101.237 134.785 99.6944 133.52 97.8851C130.959 94.2241 129.955 89.6964 130.729 85.296C131.503 80.8956 133.991 76.9821 137.648 74.4144C140.514 72.4061 143.936 71.3436 147.436 71.3755C150.936 71.4073 154.339 72.5319 157.168 74.5921C154.326 76.3059 152.372 77.3091 152.006 77.4659C150.71 78.0835 149.663 79.1228 149.036 80.4135C148.408 81.7042 148.238 83.1697 148.553 84.57C148.867 85.9702 149.648 87.222 150.767 88.1204C151.886 89.0188 153.277 89.5104 154.712 89.5147C155.611 89.5147 156.531 89.3057 157.398 88.8981C159.425 87.9367 161.599 86.7977 163.867 85.4496C164.388 88.5853 164.014 91.8045 162.786 94.7366C161.559 97.6688 159.528 100.195 156.928 102.023Z" fill="black"/>
</svg>
