<svg width="282" height="282" viewBox="0 0 282 282" fill="none" xmlns="http://www.w3.org/2000/svg">
<path d="M223.25 82.25C223.25 69.325 212.675 58.75 199.75 58.75H164.5V82.25H199.75V113.387L158.86 164.5H117.5V105.75H70.5C44.5325 105.75 23.5 126.783 23.5 152.75V188H47C47 207.505 62.745 223.25 82.25 223.25C101.755 223.25 117.5 207.505 117.5 188H170.14L223.25 121.613V82.25ZM82.25 199.75C75.7875 199.75 70.5 194.462 70.5 188H94C94 194.462 88.7125 199.75 82.25 199.75Z" fill="black"/>
<path d="M58.75 70.5H117.5V94H58.75V70.5ZM223.25 152.75C203.745 152.75 188 168.495 188 188C188 207.505 203.745 223.25 223.25 223.25C242.755 223.25 258.5 207.505 258.5 188C258.5 168.495 242.755 152.75 223.25 152.75ZM223.25 199.75C216.788 199.75 211.5 194.463 211.5 188C211.5 181.537 216.788 176.25 223.25 176.25C229.712 176.25 235 181.537 235 188C235 194.463 229.712 199.75 223.25 199.75Z" fill="black"/>
</svg>
