<svg width="200" height="200" viewBox="0 0 200 200" fill="none" xmlns="http://www.w3.org/2000/svg">
<path d="M132 100C132 106.329 130.123 112.516 126.607 117.778C123.091 123.041 118.093 127.142 112.246 129.564C106.399 131.986 99.9645 132.62 93.7571 131.385C87.5497 130.15 81.8479 127.103 77.3726 122.627C72.8973 118.152 69.8496 112.45 68.6149 106.243C67.3801 100.035 68.0138 93.6014 70.4359 87.7541C72.8579 81.9069 76.9594 76.9092 82.2218 73.393C87.4841 69.8768 93.671 68 100 68C108.479 68.0264 116.603 71.4063 122.598 77.4017C128.594 83.3972 131.974 91.5212 132 100V100ZM200 56V144C200 158.852 194.1 173.096 183.598 183.598C173.096 194.1 158.852 200 144 200H56C41.1479 200 26.9041 194.1 16.402 183.598C5.89998 173.096 0 158.852 0 144V56C0 41.1479 5.89998 26.9041 16.402 16.402C26.9041 5.89998 41.1479 0 56 0H144C158.852 0 173.096 5.89998 183.598 16.402C194.1 26.9041 200 41.1479 200 56V56ZM148 100C148 90.5065 145.185 81.2262 139.911 73.3326C134.636 65.4391 127.14 59.2868 118.369 55.6538C109.598 52.0208 99.9468 51.0702 90.6357 52.9223C81.3246 54.7744 72.7718 59.346 66.0589 66.0589C59.346 72.7718 54.7744 81.3246 52.9223 90.6357C51.0702 99.9468 52.0208 109.598 55.6538 118.369C59.2868 127.14 65.4391 134.636 73.3326 139.911C81.2262 145.185 90.5065 148 100 148C112.73 148 124.939 142.943 133.941 133.941C142.943 124.939 148 112.73 148 100ZM164 48C164 45.6266 163.296 43.3066 161.978 41.3332C160.659 39.3598 158.785 37.8217 156.592 36.9134C154.399 36.0052 151.987 35.7676 149.659 36.2306C147.331 36.6936 145.193 37.8365 143.515 39.5147C141.836 41.1929 140.694 43.3311 140.231 45.6589C139.768 47.9867 140.005 50.3995 140.913 52.5922C141.822 54.7849 143.36 56.6591 145.333 57.9776C147.307 59.2962 149.627 60 152 60C155.183 60 158.235 58.7357 160.485 56.4853C162.736 54.2348 164 51.1826 164 48Z" fill="black"/>
</svg>
