<svg width="200" height="200" viewBox="0 0 200 200" fill="none" xmlns="http://www.w3.org/2000/svg">
<path fill-rule="evenodd" clip-rule="evenodd" d="M28.5714 0C20.9938 0 13.7266 3.0102 8.36838 8.36838C3.0102 13.7266 0 20.9938 0 28.5714V171.429C0 179.006 3.0102 186.273 8.36838 191.632C13.7266 196.99 20.9938 200 28.5714 200H171.429C179.006 200 186.273 196.99 191.632 191.632C196.99 186.273 200 179.006 200 171.429V28.5714C200 20.9938 196.99 13.7266 191.632 8.36838C186.273 3.0102 179.006 0 171.429 0H28.5714ZM44.3143 61.3857C48.8419 61.3857 53.1841 59.5871 56.3856 56.3856C59.5871 53.1841 61.3857 48.8419 61.3857 44.3143C61.3857 39.7867 59.5871 35.4445 56.3856 32.243C53.1841 29.0414 48.8419 27.2429 44.3143 27.2429C39.7867 27.2429 35.4445 29.0414 32.243 32.243C29.0414 35.4445 27.2429 39.7867 27.2429 44.3143C27.2429 48.8419 29.0414 53.1841 32.243 56.3856C35.4445 59.5871 39.7867 61.3857 44.3143 61.3857V61.3857ZM58.6 168.757V74.7714H30.0286V168.757H58.6ZM77.5714 74.7714H106.143V87.3571C110.357 80.7571 119.614 71.8714 136.829 71.8714C157.371 71.8714 168.529 85.4857 168.529 111.386C168.529 112.629 168.643 118.3 168.643 118.3V168.743H140.071V118.314C140.071 111.386 138.614 97.7714 123.214 97.7714C107.8 97.7714 106.5 114.886 106.143 126.086V168.743H77.5714V74.7714V74.7714Z" fill="black"/>
</svg>
